ffmpeg started on 2016-11-29 at 16:56:15
Report written to "Output/x264/results/ffmpeg/Told_town_cross_2160p50veryfast4000k.log"
Command line:
Tools/ffmpeg/ffmpeg -i Output/x264/encoded/old_town_cross_2160p50veryfast4000k.mkv -c:v rawvideo -pix_fmt yuv420p Output/x264/transcoded/old_town_cross_2160p50veryfast4000k.yuv
ffmpeg version N-82227-gdb23fde Copyright (c) 2000-2016 the FFmpeg developers
  built with gcc 5.4.0 (Ubuntu 5.4.0-6ubuntu1~16.04.2) 20160609
  configuration: --prefix=/home/jaroslav/ffmpeg_build --pkg-config-flags=--static --extra-cflags=-I/home/jaroslav/ffmpeg_build/include --extra-ldflags=-L/home/jaroslav/ffmpeg_build/lib --bindir=/home/jaroslav/bin --enable-gpl --enable-libass --enable-libfdk-aac --enable-libfreetype --enable-libmp3lame --enable-libopus --enable-libtheora --enable-libvorbis --enable-libvpx --enable-libx264 --enable-libx265 --enable-nvenc --enable-libmfx --enable-libxvid --enable-libgsm --enable-libopencore-amrnb --enable-version3 --enable-nonfree
  libavutil      55. 35.100 / 55. 35.100
  libavcodec     57. 66.101 / 57. 66.101
  libavformat    57. 57.100 / 57. 57.100
  libavdevice    57.  2.100 / 57.  2.100
  libavfilter     6. 66.100 /  6. 66.100
  libswscale      4.  3.100 /  4.  3.100
  libswresample   2.  4.100 /  2.  4.100
  libpostproc    54.  2.100 / 54.  2.100
Input #0, matroska,webm, from 'Output/x264/encoded/old_town_cross_2160p50veryfast4000k.mkv':
  Metadata:
    ENCODER         : Lavf57.57.100
  Duration: 00:00:10.00, start: 0.000000, bitrate: 4096 kb/s
    Stream #0:0: Video: h264 (High), yuv420p(progressive), 3840x2160 [SAR 1:1 DAR 16:9], 50 fps, 50 tbr, 1k tbn, 100 tbc (default)
    Metadata:
      ENCODER         : Lavc57.66.101 libx264
      DURATION        : 00:00:10.000000000
Output #0, rawvideo, to 'Output/x264/transcoded/old_town_cross_2160p50veryfast4000k.yuv':
  Metadata:
    encoder         : Lavf57.57.100
    Stream #0:0: Video: rawvideo (I420 / 0x30323449), yuv420p, 3840x2160 [SAR 1:1 DAR 16:9], q=2-31, 200 kb/s, 50 fps, 50 tbn, 50 tbc (default)
    Metadata:
      DURATION        : 00:00:10.000000000
      encoder         : Lavc57.66.101 rawvideo
Stream mapping:
  Stream #0:0 -> #0:0 (h264 (native) -> rawvideo (native))
Press [q] to stop, [?] for help
frame=   17 fps=0.0 q=-0.0 size=  206550kB time=00:00:00.34 bitrate=4976640.0kbits/s speed=0.639x    frame=   34 fps= 32 q=-0.0 size=  413100kB time=00:00:00.68 bitrate=4976640.0kbits/s speed=0.649x    frame=   51 fps= 33 q=-0.0 size=  619650kB time=00:00:01.02 bitrate=4976640.0kbits/s speed=0.652x    frame=   68 fps= 33 q=-0.0 size=  826200kB time=00:00:01.36 bitrate=4976640.0kbits/s speed=0.654x    frame=   85 fps= 33 q=-0.0 size= 1032750kB time=00:00:01.70 bitrate=4976640.0kbits/s speed=0.655x    frame=  102 fps= 33 q=-0.0 size= 1239300kB time=00:00:02.04 bitrate=4976640.0kbits/s speed=0.656x    frame=  119 fps= 33 q=-0.0 size= 1445850kB time=00:00:02.38 bitrate=4976640.0kbits/s speed=0.655x    frame=  136 fps= 33 q=-0.0 size= 1652400kB time=00:00:02.72 bitrate=4976640.0kbits/s speed=0.656x    frame=  153 fps= 33 q=-0.0 size= 1858950kB time=00:00:03.06 bitrate=4976640.0kbits/s speed=0.656x    frame=  170 fps= 33 q=-0.0 size= 2065500kB time=00:00:03.40 bitrate=4976640.0kbits/s speed=0.656x    frame=  187 fps= 33 q=-0.0 size= 2272050kB time=00:00:03.74 bitrate=4976640.0kbits/s speed=0.656x    frame=  204 fps= 33 q=-0.0 size= 2478600kB time=00:00:04.08 bitrate=4976640.0kbits/s speed=0.656x    frame=  221 fps= 33 q=-0.0 size= 2685150kB time=00:00:04.42 bitrate=4976640.0kbits/s speed=0.656x    frame=  237 fps= 33 q=-0.0 size= 2879550kB time=00:00:04.74 bitrate=4976640.0kbits/s speed=0.655x    frame=  253 fps= 33 q=-0.0 size= 3073950kB time=00:00:05.06 bitrate=4976640.0kbits/s speed=0.654x    frame=  269 fps= 33 q=-0.0 size= 3268350kB time=00:00:05.38 bitrate=4976640.0kbits/s speed=0.652x    frame=  285 fps= 33 q=-0.0 size= 3462750kB time=00:00:05.70 bitrate=4976640.0kbits/s speed=0.651x    frame=  297 fps= 32 q=-0.0 size= 3608550kB time=00:00:05.94 bitrate=4976640.0kbits/s speed=0.639x    frame=  313 fps= 32 q=-0.0 size= 3802950kB time=00:00:06.26 bitrate=4976640.0kbits/s speed=0.639x    frame=  330 fps= 32 q=-0.0 size= 4009500kB time=00:00:06.60 bitrate=4976640.0kbits/s speed=0.64x    frame=  347 fps= 32 q=-0.0 size= 4216050kB time=00:00:06.94 bitrate=4976640.0kbits/s speed=0.64x    frame=  364 fps= 32 q=-0.0 size= 4422600kB time=00:00:07.28 bitrate=4976640.0kbits/s speed=0.641x    frame=  380 fps= 32 q=-0.0 size= 4617000kB time=00:00:07.60 bitrate=4976640.0kbits/s speed=0.641x    frame=  396 fps= 32 q=-0.0 size= 4811400kB time=00:00:07.92 bitrate=4976640.0kbits/s speed=0.641x    frame=  413 fps= 32 q=-0.0 size= 5017950kB time=00:00:08.26 bitrate=4976640.0kbits/s speed=0.641x    frame=  430 fps= 32 q=-0.0 size= 5224500kB time=00:00:08.60 bitrate=4976640.0kbits/s speed=0.642x    frame=  447 fps= 32 q=-0.0 size= 5431050kB time=00:00:08.94 bitrate=4976640.0kbits/s speed=0.642x    frame=  464 fps= 32 q=-0.0 size= 5637600kB time=00:00:09.28 bitrate=4976640.0kbits/s speed=0.643x    frame=  481 fps= 32 q=-0.0 size= 5844150kB time=00:00:09.62 bitrate=4976640.0kbits/s speed=0.643x    frame=  498 fps= 32 q=-0.0 size= 6050700kB time=00:00:09.96 bitrate=4976640.0kbits/s speed=0.644x    frame=  500 fps= 32 q=-0.0 Lsize= 6075000kB time=00:00:10.00 bitrate=4976640.0kbits/s speed=0.643x    
video:6075000kB audio:0kB subtitle:0kB other streams:0kB global headers:0kB muxing overhead: 0.000000%
